<?xml version="1.0" standalone="no"?>
<!DOCTYPE svg PUBLIC "-//W3C//DTD SVG 20010904//EN"
 "http://www.w3.org/TR/2001/REC-SVG-20010904/DTD/svg10.dtd">
<svg version="1.0" xmlns="http://www.w3.org/2000/svg"
 width="100.000000pt" height="100.000000pt" viewBox="0 0 512.000000 512.000000"
 preserveAspectRatio="xMidYMid meet">

<g transform="translate(0.000000,512.000000) scale(0.100000,-0.100000)"
fill="#000000" stroke="none">
<path d="M2460 4931 c-19 -11 -47 -32 -62 -48 -27 -29 -194 -296 -216 -346
-32 -74 -2 -191 63 -245 l34 -27 -150 -245 c-82 -135 -162 -266 -179 -292
l-29 -47 -33 17 c-66 33 -194 11 -237 -42 -12 -14 -76 -16 -570 -16 l-557 0
-52 -26 c-29 -14 -64 -41 -78 -60 -56 -73 -54 -17 -54 -1440 l0 -1312 -151 -4
c-202 -4 -192 8 -187 -228 3 -166 5 -177 30 -226 15 -28 50 -72 78 -97 94 -84
-140 -77 2450 -77 2599 0 2357 -8 2454 81 87 79 100 120 104 324 5 231 15 219
-187 223 l-151 4 2 630 3 631 47 12 c173 44 263 238 186 401 -24 53 -93 116
-176 164 l-62 35 0 376 c0 408 -3 437 -55 506 -15 19 -51 46 -79 59 l-51 24
-697 0 -697 0 -75 46 c-67 41 -74 48 -63 65 15 24 15 24 82 -11 94 -50 200
-35 267 36 27 30 168 255 207 331 28 55 28 139 1 192 -10 22 -37 54 -59 72
-22 19 -239 155 -483 304 l-443 269 -70 3 c-54 3 -78 -1 -105 -16z m570 -392
c245 -149 451 -278 458 -287 26 -34 13 -74 -70 -211 -96 -160 -121 -191 -159
-191 -18 0 -175 90 -466 267 -241 146 -448 275 -460 286 -41 36 -31 70 68 232
50 83 98 156 107 163 41 31 68 18 522 -259z m-352 -515 c141 -86 262 -162 268
-168 9 -8 -32 -83 -162 -296 -96 -157 -181 -284 -188 -284 -21 2 -546 325
-546 336 0 5 78 138 173 294 110 181 177 282 185 279 7 -3 128 -75 270 -161z
m1247 -989 c512 -311 938 -576 947 -588 10 -12 23 -37 29 -55 34 -102 -71
-212 -175 -184 -18 5 -269 154 -557 330 -288 176 -706 430 -929 566 -223 136
-405 252 -405 259 0 21 139 247 150 243 6 -2 429 -259 940 -571z m-2092 531
c61 -26 872 -527 895 -552 12 -14 22 -35 22 -47 0 -30 -184 -329 -212 -345
-13 -7 -34 -10 -48 -8 -14 3 -113 58 -220 124 -107 66 -308 188 -447 272 -241
147 -273 172 -273 214 0 15 162 288 189 320 13 15 40 31 59 35 1 1 17 -5 35
-13z m-295 -74 c-2 -5 -21 -39 -43 -75 l-40 -67 -330 0 c-297 0 -334 -2 -370
-19 -46 -21 -101 -79 -112 -119 -5 -15 -8 -497 -8 -1072 0 -1002 1 -1046 19
-1080 26 -49 46 -69 88 -91 36 -18 90 -19 1818 -19 1728 0 1782 1 1818 19 42
22 62 42 88 91 18 33 19 70 22 573 2 295 5 537 8 537 3 0 37 -19 75 -41 l69
-41 0 -644 0 -644 -2080 0 -2080 0 2 1326 3 1326 28 24 28 24 500 0 c276 0
499 -4 497 -8z m3069 -16 l28 -24 3 -341 c1 -188 0 -341 -4 -341 -3 0 -37 19
-74 42 l-68 42 -4 176 c-4 190 -9 209 -65 262 -58 56 -74 58 -424 58 l-322 0
-116 71 c-64 39 -118 73 -120 75 -2 2 253 4 567 4 l571 0 28 -24z m-1072 -716
c391 -238 734 -448 763 -466 l52 -34 -2 -568 c-2 -465 -6 -572 -17 -585 -12
-16 -149 -17 -1771 -17 -1623 0 -1759 1 -1771 17 -12 13 -14 188 -14 1045 0
1008 0 1030 19 1044 16 11 76 14 318 14 l298 0 11 -47 c7 -26 27 -62 45 -83
20 -22 184 -129 418 -271 l385 -234 -57 -7 c-151 -20 -259 -73 -363 -177 -85
-85 -140 -182 -161 -282 l-12 -59 -121 0 c-149 0 -188 -11 -241 -64 -56 -55
-68 -114 -62 -306 5 -169 20 -211 90 -257 l42 -28 1176 0 1176 0 42 28 c70 46
85 88 90 257 6 192 -6 251 -62 306 -53 54 -92 64 -242 64 l-121 0 -12 59 c-20
99 -75 196 -160 282 -128 129 -260 179 -470 179 -61 0 -111 2 -111 4 0 3 42
75 94 160 68 112 97 169 102 202 13 86 -29 170 -109 221 -23 15 -44 28 -46 30
-2 2 1 14 7 28 l12 25 37 -23 c21 -13 358 -219 748 -457z m791 436 c17 -13 19
-29 22 -132 4 -108 2 -116 -14 -110 -23 9 -414 247 -414 252 0 2 87 4 193 4
151 0 197 -3 213 -14z m-1361 -781 c83 -22 151 -61 212 -124 52 -53 104 -145
118 -208 l7 -33 -742 0 -742 0 7 33 c32 148 170 289 326 331 81 22 730 22 814
1z m739 -520 c23 -23 28 -69 24 -207 -2 -87 -7 -130 -17 -141 -12 -16 -106
-17 -1151 -17 -1045 0 -1139 1 -1151 17 -15 18 -26 239 -14 299 13 69 -82 64
1165 64 1000 0 1130 -2 1144 -15z m1276 -1343 c0 -95 -3 -115 -23 -153 -15
-27 -38 -52 -63 -66 l-39 -23 -2295 0 -2295 0 -39 23 c-25 14 -48 39 -63 66
-20 38 -23 58 -23 153 l0 108 2420 0 2420 0 0 -108z"/>
</g>
</svg>
