<?xml version="1.0" standalone="no"?>
<!DOCTYPE svg PUBLIC "-//W3C//DTD SVG 20010904//EN"
 "http://www.w3.org/TR/2001/REC-SVG-20010904/DTD/svg10.dtd">
<svg version="1.0" xmlns="http://www.w3.org/2000/svg"
 width="100.000000pt" height="100.000000pt" viewBox="0 0 512.000000 512.000000"
 preserveAspectRatio="xMidYMid meet">

<g transform="translate(0.000000,512.000000) scale(0.100000,-0.100000)"
fill="#000000" stroke="none">
<path d="M1040 5027 c-49 -16 -133 -102 -148 -153 -9 -31 -12 -229 -12 -778
l0 -736 -296 0 c-204 0 -310 -4 -338 -12 -55 -16 -138 -99 -154 -154 -17 -60
-17 -2328 0 -2388 16 -55 99 -138 154 -154 31 -9 217 -12 723 -12 l681 0 320
-280 c349 -305 353 -308 405 -255 l25 24 0 256 0 255 498 0 c572 0 562 -1 635
80 24 26 49 66 55 88 9 29 12 218 12 696 l0 656 618 0 c706 0 681 -3 755 80
24 26 49 66 55 88 17 57 17 2487 0 2544 -6 22 -31 62 -55 88 -78 87 106 80
-2017 79 -1341 -1 -1891 -4 -1916 -12z m3815 -172 l25 -24 0 -1231 0 -1231
-25 -24 -24 -25 -673 0 -672 0 -263 -262 -263 -262 0 237 0 238 -25 24 -24 25
-911 0 -911 0 -24 25 -25 24 0 1231 0 1231 25 24 24 25 1871 0 1871 0 24 -25z
m-3975 -2071 c0 -298 3 -428 12 -458 16 -55 99 -138 154 -154 31 -9 255 -12
898 -12 l856 0 0 -295 0 -296 25 -24 c16 -16 35 -25 57 -25 29 0 59 27 295
262 l263 262 0 -597 0 -598 -25 -24 -24 -25 -549 0 c-526 0 -551 -1 -573 -19
-24 -19 -24 -23 -29 -230 l-5 -210 -263 229 -262 230 -711 0 -710 0 -24 25
-25 24 0 1151 0 1151 25 24 24 25 296 0 295 0 0 -416z"/>
<path d="M2480 4707 c-19 -6 -58 -34 -85 -62 -71 -70 -91 -146 -63 -237 14
-48 76 -121 118 -138 l30 -12 0 -338 0 -338 -30 -12 c-68 -28 -130 -129 -130
-210 0 -92 80 -202 166 -228 58 -17 730 -17 788 0 86 26 166 136 166 228 0 81
-62 182 -130 210 -28 11 -30 16 -30 61 l0 49 159 0 159 0 6 -25 c4 -14 16 -31
29 -39 12 -8 108 -28 212 -45 391 -63 525 -66 639 -13 91 42 149 100 194 190
35 72 37 81 37 172 0 91 -2 100 -37 172 -45 91 -103 147 -196 191 -67 32 -68
32 -222 31 -128 -1 -194 -8 -380 -38 -124 -21 -235 -44 -247 -52 -13 -8 -25
-25 -29 -39 l-6 -25 -159 0 -159 0 0 49 c0 45 2 50 30 61 68 28 130 129 130
210 0 92 -80 202 -166 228 -54 16 -743 15 -794 -1z m775 -172 c16 -15 25 -36
25 -55 0 -19 -9 -40 -25 -55 l-24 -25 -351 0 -351 0 -24 25 c-16 15 -25 36
-25 55 0 19 9 40 25 55 l24 25 351 0 351 0 24 -25z m-135 -615 l0 -320 -240 0
-240 0 0 320 0 320 240 0 240 0 0 -320z m1274 228 c55 -16 138 -99 154 -154
28 -94 8 -169 -63 -240 -67 -67 -110 -79 -258 -71 -94 6 -363 43 -444 62 -23
5 -23 7 -23 175 0 152 2 169 18 174 24 7 328 54 377 59 92 8 200 6 239 -5z
m-794 -228 l0 -80 -160 0 -160 0 0 80 0 80 160 0 160 0 0 -80z m-345 -505 c16
-15 25 -36 25 -55 0 -19 -9 -40 -25 -55 l-24 -25 -351 0 -351 0 -24 25 c-16
15 -25 36 -25 55 0 19 9 40 25 55 l24 25 351 0 351 0 24 -25z"/>
<path d="M1680 3680 l0 -160 80 0 80 0 0 160 0 160 -80 0 -80 0 0 -160z"/>
<path d="M1277 3759 c-37 -26 -56 -46 -53 -55 8 -20 146 -224 152 -224 3 0 32
18 65 41 39 26 59 46 55 55 -10 25 -146 224 -154 223 -4 0 -33 -18 -65 -40z"/>
<path d="M2100 3695 c-39 -58 -73 -112 -76 -119 -4 -9 16 -29 55 -55 33 -23
62 -41 65 -41 6 0 144 204 152 224 4 9 -16 29 -55 55 -33 23 -62 41 -65 41 -3
0 -37 -47 -76 -105z"/>
<path d="M1385 3335 c-24 -23 -25 -29 -25 -160 l0 -135 -55 0 c-46 0 -60 -4
-80 -25 -25 -24 -25 -26 -25 -215 0 -189 0 -191 25 -215 l24 -25 511 0 511 0
24 25 c25 24 25 26 25 215 0 189 0 191 -25 215 -20 21 -34 25 -80 25 l-55 0 0
135 c0 131 -1 137 -25 160 l-24 25 -351 0 -351 0 -24 -25z m615 -215 l0 -80
-240 0 -240 0 0 80 0 80 240 0 240 0 0 -80z m160 -320 l0 -80 -400 0 -400 0 0
80 0 80 400 0 400 0 0 -80z"/>
<path d="M1040 1680 l0 -80 80 0 80 0 0 80 0 80 -80 0 -80 0 0 -80z"/>
<path d="M1360 1680 l0 -80 80 0 80 0 0 80 0 80 -80 0 -80 0 0 -80z"/>
<path d="M1680 1680 l0 -80 80 0 80 0 0 80 0 80 -80 0 -80 0 0 -80z"/>
<path d="M2000 1680 l0 -80 80 0 80 0 0 80 0 80 -80 0 -80 0 0 -80z"/>
<path d="M2320 1680 l0 -80 80 0 80 0 0 80 0 80 -80 0 -80 0 0 -80z"/>
</g>
</svg>
