<svg xmlns="http://www.w3.org/2000/svg" width="513pt" height="487pt" viewBox="0 0 513 487" version="1.1"><path d="M 278 34.671 C 276.625 35.561, 271.225 41.257, 266 47.329 C 255.796 59.187, 247.388 68.829, 214.083 106.861 C 191.970 132.112, 190.385 134.614, 194.566 137.672 C 198.649 140.658, 200.422 139.162, 220.799 115.534 C 260.263 69.774, 279.629 48.125, 281.153 48.065 C 282.063 48.029, 284.988 49.991, 287.653 52.423 C 291.375 55.820, 292.268 57.184, 291.500 58.299 C 290.412 59.879, 260.747 93.805, 252.250 103.186 C 246.280 109.777, 245.563 113.012, 249.500 115.592 C 251.769 117.079, 252.219 117.087, 254.369 115.678 C 255.672 114.824, 261.613 108.585, 267.571 101.813 C 273.530 95.041, 283.151 84.105, 288.952 77.511 C 294.754 70.917, 300.739 64.167, 302.253 62.511 C 305.902 58.519, 306.477 56.377, 304.649 53.587 C 302.984 51.047, 282.414 32.984, 281.234 33.027 C 280.830 33.041, 279.375 33.781, 278 34.671" stroke="none" fill="#5e7a1c" fill-rule="evenodd"/><path d="M 185.119 98.003 C 179.525 99.323, 176.448 103.491, 171.460 116.500 C 168.930 123.100, 163.349 137.725, 159.058 149 C 154.768 160.275, 148.414 176.925, 144.938 186 C 141.463 195.075, 138.603 204.079, 138.583 206.008 C 138.543 209.776, 139.569 212.425, 150.013 235.500 C 156.738 250.360, 169.929 279.559, 182.992 308.500 C 186.715 316.750, 191.728 327.985, 194.131 333.467 C 199.939 346.715, 207.333 354.615, 216.944 357.839 C 224.595 360.405, 231.171 360.585, 237.715 358.409 C 241.838 357.038, 270.317 344.487, 309.500 326.774 C 315.550 324.039, 321.850 321.196, 323.500 320.457 C 346.287 310.245, 350.135 307.497, 354.720 298.161 C 357.105 293.305, 357.498 291.291, 357.483 284 C 357.466 275.574, 357.402 275.361, 350.130 259.500 C 346.095 250.700, 339.958 237.200, 336.493 229.500 C 333.027 221.800, 325.922 206.050, 320.703 194.500 C 315.484 182.950, 307.759 165.850, 303.537 156.500 C 299.315 147.150, 294.839 138.457, 293.591 137.183 C 291.360 134.906, 284.863 132.198, 256 121.517 C 248.025 118.566, 238.518 115.017, 234.873 113.631 L 228.247 111.110 219.209 120.881 C 212.641 127.981, 209.867 131.779, 209.060 134.776 C 206.078 145.851, 189.945 145.936, 186.971 134.891 C 185.410 129.096, 187.960 124.236, 194.104 121.299 C 196.943 119.942, 201.105 116.394, 204.963 112.042 L 211.218 104.986 205.789 102.585 C 200.564 100.275, 190.244 96.891, 189.068 97.102 C 188.756 97.159, 186.978 97.564, 185.119 98.003 M 260 167.703 C 253.125 170.826, 247.317 173.515, 247.094 173.680 C 246.260 174.295, 250.351 182, 251.511 182 C 252.175 182, 256.209 180.387, 260.475 178.416 C 264.742 176.445, 268.567 175.207, 268.977 175.666 C 269.386 176.125, 271.222 179.875, 273.056 184 C 274.890 188.125, 276.500 191.660, 276.635 191.856 C 277.242 192.743, 286.042 188.568, 285.615 187.596 C 275.243 163.946, 274.296 161.993, 273.215 162.013 C 272.822 162.020, 266.875 164.581, 260 167.703 M 189.999 198.827 C 186.973 200.297, 181.255 202.928, 177.292 204.674 L 170.086 207.848 175.366 219.674 C 178.271 226.178, 180.942 232.301, 181.304 233.280 C 181.922 234.957, 182.210 234.935, 186.230 232.907 C 188.579 231.723, 190.646 230.626, 190.823 230.470 C 191.001 230.314, 189.539 226.706, 187.573 222.452 C 185.608 218.199, 184 214.178, 184 213.517 C 184 212.857, 187.841 210.605, 192.535 208.513 C 197.229 206.422, 200.940 204.438, 200.780 204.105 C 200.621 203.772, 199.839 201.813, 199.044 199.750 C 198.249 197.688, 197.126 196.035, 196.549 196.077 C 195.972 196.119, 193.024 197.356, 189.999 198.827 M 213.540 220.750 C 214.402 222.813, 220.567 236.802, 227.240 251.838 L 239.374 279.176 243.823 267.588 C 246.269 261.215, 248.608 256, 249.020 256 C 249.432 256, 254.559 259.825, 260.413 264.500 C 266.268 269.175, 271.292 273, 271.577 273 C 272.448 273, 276.936 267.567, 276.947 266.500 C 276.953 265.950, 272.659 262.125, 267.405 258 C 262.151 253.875, 257.400 249.962, 256.848 249.304 C 255.785 248.037, 262.683 244.101, 272.272 240.502 C 274.897 239.517, 276.873 238.540, 276.664 238.331 C 276.138 237.805, 213.865 217, 212.818 217 C 212.353 217, 212.678 218.688, 213.540 220.750 M 307.750 251.068 C 305.688 252.157, 304 253.206, 304 253.399 C 304 253.592, 305.575 257.206, 307.500 261.431 C 309.425 265.655, 311 269.556, 311 270.101 C 311 270.646, 307.175 272.850, 302.500 275 C 297.825 277.150, 294 279.172, 294 279.494 C 294 279.816, 294.905 281.854, 296.011 284.022 L 298.023 287.965 303.761 285.372 C 306.918 283.946, 311.975 281.655, 315 280.280 C 318.025 278.906, 321.492 277.400, 322.705 276.933 C 324.903 276.086, 324.896 276.052, 320.593 266.292 C 314.820 253.195, 312.741 248.991, 312.065 249.044 C 311.754 249.069, 309.813 249.979, 307.750 251.068 M 213.217 293.014 C 208.379 295.180, 208.159 293.628, 215.631 310 C 218.929 317.225, 221.367 321.379, 222.190 321.175 C 224.357 320.638, 246.435 310.827, 247.331 310.003 C 247.788 309.582, 247.233 307.416, 246.096 305.189 L 244.031 301.140 235.095 304.959 L 226.160 308.778 222.398 300.336 C 220.329 295.692, 218.360 291.723, 218.024 291.515 C 217.687 291.307, 215.524 291.981, 213.217 293.014 M 70.500 404.383 C 64.697 407.127, 61.119 410.692, 57.840 417 C 55.981 420.574, 55.507 423.043, 55.533 429 C 55.572 437.956, 57.602 442.535, 64.250 448.663 C 69.654 453.644, 74.610 455.445, 82.589 455.327 C 107.707 454.953, 118.304 424.255, 99.015 407.745 C 91.688 401.473, 79.656 400.055, 70.500 404.383 M 125.667 402.667 C 125.300 403.033, 125 414.693, 125 428.578 L 125 453.822 131.078 454.161 C 134.421 454.348, 137.796 454.140, 138.578 453.700 C 139.667 453.088, 140.005 450.392, 140.023 442.200 L 140.045 431.500 143.424 437 C 148.443 445.172, 149.936 447, 151.592 447 C 152.416 447, 155.432 443.318, 158.295 438.817 L 163.500 430.634 163.782 442.317 L 164.063 454 171.049 454 L 178.034 454 177.767 428.250 L 177.500 402.500 170.529 402.500 L 163.558 402.500 158.248 411.500 C 155.328 416.450, 152.586 421.083, 152.155 421.795 C 151.630 422.661, 149.318 419.602, 145.167 412.545 L 138.963 402 132.648 402 C 129.175 402, 126.033 402.300, 125.667 402.667 M 212.388 403.266 C 203.057 406.965, 196.232 415.353, 195.314 424.250 C 194.482 432.309, 195.671 438.161, 199.234 443.539 C 205.206 452.555, 216.296 457.118, 226.890 454.919 C 240.085 452.180, 247.980 442.457, 247.934 429 C 247.897 417.966, 243.827 410.327, 235.333 405.349 C 231.644 403.187, 229.226 402.592, 223.117 402.343 C 218.670 402.162, 214.205 402.546, 212.388 403.266 M 279 404.079 C 269.449 408.397, 263.997 416.364, 263.224 427.135 C 262.820 432.768, 263.137 434.619, 265.323 439.395 C 269.968 449.540, 278.630 455.279, 289.500 455.415 C 297.986 455.520, 303.962 452.949, 309.472 446.820 C 311.962 444.050, 314 441.389, 314 440.906 C 314 440.424, 311.211 438.621, 307.802 436.900 C 301.774 433.857, 301.561 433.823, 300.052 435.666 C 295.522 441.199, 289 442.517, 283.314 439.050 C 279.389 436.657, 277.764 433.759, 277.637 428.931 C 277.507 423.962, 279.431 420.688, 283.987 418.128 C 289.854 414.830, 293.506 415.454, 299.158 420.721 L 301.816 423.198 307.158 420.528 C 310.096 419.059, 312.861 417.506, 313.303 417.076 C 314.813 415.605, 307.554 407.633, 302.118 404.793 C 295.319 401.241, 285.918 400.951, 279 404.079 M 329.708 402.626 C 328.587 403.747, 328.850 453.782, 329.979 454.167 C 330.518 454.350, 333.893 454.349, 337.479 454.165 L 344 453.829 344 444.415 L 344 435 353 435 L 362 435 362 444.500 L 362 454 369.017 454 L 376.034 454 375.767 428.250 L 375.500 402.500 368.750 402.204 L 362 401.909 362 411.454 L 362 421 353.038 421 L 344.075 421 343.788 411.750 L 343.500 402.500 336.958 402.209 C 333.359 402.049, 330.097 402.237, 329.708 402.626 M 403.481 417.750 C 400.312 426.413, 396.208 437.483, 394.360 442.350 C 389.535 455.059, 389.377 454.685, 399.359 454.170 L 405.759 453.840 407.299 449.920 L 408.839 446 416.500 446 L 424.161 446 425.732 450 L 427.303 454 434.652 454 C 439.926 454, 442 453.641, 442 452.730 C 442 452.031, 439.259 444.044, 435.908 434.980 C 432.558 425.916, 428.780 415.575, 427.514 412 C 426.247 408.425, 424.890 404.712, 424.498 403.750 C 423.912 402.309, 422.502 402, 416.514 402 L 409.242 402 403.481 417.750 M 76.304 417.956 C 70.243 421.652, 68.297 427.474, 70.967 433.921 C 74.544 442.556, 88.227 443.263, 92.483 435.033 C 95.908 428.409, 93.540 420.882, 86.961 417.480 C 83.112 415.489, 80.132 415.622, 76.304 417.956 M 216.256 417.645 C 212.362 419.564, 208.999 424.654, 209.004 428.618 C 209.012 435.172, 215.397 441, 222.568 441 C 225.495 441, 227.019 440.216, 230.118 437.118 C 233.473 433.763, 234 432.626, 234 428.753 C 234 423.706, 231.615 419.886, 226.961 417.480 C 223.309 415.591, 220.328 415.637, 216.256 417.645 M 415.141 428.025 C 413.673 432.236, 413.589 432, 416.567 432 C 418.767 432, 419.036 431.678, 418.446 429.750 C 416.992 424.997, 416.319 424.646, 415.141 428.025" stroke="none" fill="#a3d315" fill-rule="evenodd"/></svg>