<svg xmlns="http://www.w3.org/2000/svg" version="1.1" xmlns:xlink="http://www.w3.org/1999/xlink" xmlns:svgjs="http://svgjs.dev/svgjs" width="2000" height="1234" viewBox="0 0 2000 1234"><g transform="matrix(1,0,0,1,-2.446808510638334,-2.1914137931036066)"><svg viewBox="0 0 376 232" data-background-color="#fafafa" preserveAspectRatio="xMidYMid meet" height="1234" width="2000" xmlns="http://www.w3.org/2000/svg" xmlns:xlink="http://www.w3.org/1999/xlink"><g id="tight-bounds" transform="matrix(1,0,0,1,0.46023999999999887,0.41246000000002425)"><svg viewBox="0 0 375.07953 231.17532000000003" height="231.17532000000003" width="375.07953"><g><svg></svg></g><g><svg viewBox="0 0 375.07953 231.17532000000003" height="231.17532000000003" width="375.07953"><g transform="matrix(1,0,0,1,-10.22024,-9.232460000000003)"><path d="M10.22 237.968v-228.736h375.08v228.736l-17.077 0 0-7.023h10.054v-214.69h-361.034v214.69l115.299 0 0 7.023z" fill="#130912" fill-rule="nonzero" stroke="none" stroke-width="1" stroke-linecap="butt" stroke-linejoin="miter" stroke-miterlimit="10" stroke-dasharray="" stroke-dashoffset="0" font-family="none" font-weight="none" font-size="none" text-anchor="none" style="mix-blend-mode: normal" data-fill-palette-color="tertiary"></path><g><path d="M153.61 235.576c0-1.874 0.505-3.463 1.515-4.765 1.01-1.303 2.193-1.955 3.549-1.955 1.353 0 2.407 0.439 3.163 1.318 0.753 0.878 1.129 2.042 1.128 3.492v0c0 1.933-0.486 3.539-1.458 4.818-0.975 1.283-2.202 1.924-3.681 1.924v0c-1.215 0-2.221-0.458-3.017-1.375-0.799-0.914-1.199-2.066-1.199-3.457zM160.506 234.808v0c0-2.123-0.725-3.184-2.174-3.185v0c-1.508 0-2.262 0.996-2.262 2.987v0c0 1.04 0.212 1.852 0.636 2.438 0.425 0.586 0.985 0.878 1.683 0.878 0.694 0 1.221-0.268 1.581-0.804 0.357-0.533 0.536-1.304 0.536-2.314zM171.223 234.61c0-1.01-0.088-1.684-0.264-2.02-0.176-0.337-0.586-0.505-1.229-0.506-0.644 0-1.376 0.256-2.197 0.769v0 1.603l0.242 5.161-2.943 0.549 0.264-5.336c-0.059-1.962-0.22-3.719-0.483-5.271v0l2.657-0.571c0.102 0.849 0.176 1.676 0.219 2.482v0c0.22-0.293 0.469-0.583 0.747-0.87 0.278-0.284 0.717-0.606 1.318-0.966 0.6-0.357 1.208-0.536 1.823-0.536 0.615 0 1.135 0.198 1.559 0.593 0.425 0.395 0.695 0.937 0.812 1.625v0c1.215-1.479 2.445-2.218 3.69-2.218v0c0.776 0 1.391 0.259 1.845 0.777 0.454 0.521 0.681 1.228 0.68 2.122v0l-0.131 2.459 0.241 5.271-2.965 0.549 0.264-5.666c0-1.01-0.088-1.684-0.264-2.02-0.176-0.337-0.578-0.505-1.207-0.506-0.63 0-1.34 0.242-2.131 0.725v0l-0.087 1.647 0.241 5.271-2.965 0.549zM181.83 235.576c0-1.874 0.505-3.463 1.516-4.765 1.01-1.303 2.192-1.955 3.544-1.955 1.356 0 2.411 0.439 3.167 1.318 0.753 0.878 1.129 2.042 1.129 3.492v0c0 1.933-0.486 3.539-1.459 4.818-0.975 1.283-2.202 1.924-3.68 1.924v0c-1.215 0-2.221-0.458-3.018-1.375-0.799-0.914-1.199-2.066-1.199-3.457zM188.726 234.808v0c0-2.123-0.725-3.184-2.174-3.185v0c-1.508 0-2.262 0.996-2.262 2.987v0c0 1.04 0.212 1.852 0.637 2.438 0.425 0.586 0.985 0.878 1.682 0.878 0.694 0 1.221-0.268 1.581-0.804 0.357-0.533 0.536-1.304 0.536-2.314zM196.852 231.711c-0.644 0-1.142 0.23-1.494 0.69-0.351 0.463-0.527 1.17-0.527 2.121 0 0.952 0.179 1.716 0.536 2.293 0.36 0.58 0.884 0.87 1.573 0.87v0c0.351 0 0.695-0.11 1.032-0.33 0.337-0.22 0.593-0.439 0.768-0.659v0l0.242-0.351 1.098 1.142c-0.044 0.073-0.1 0.176-0.167 0.307-0.064 0.132-0.225 0.366-0.483 0.703-0.255 0.337-0.524 0.632-0.808 0.887-0.287 0.258-0.657 0.492-1.111 0.703-0.454 0.214-0.93 0.321-1.428 0.321v0c-1.098 0-1.991-0.447-2.679-1.34-0.688-0.893-1.032-2.057-1.032-3.492v0c0-1.786 0.52-3.353 1.559-4.699 1.04-1.347 2.255-2.02 3.645-2.021v0c0.425 0 0.849 0.061 1.274 0.185 0.425 0.126 0.856 0.321 1.296 0.584v0l-1.537 2.701c-0.527-0.41-1.113-0.615-1.757-0.615zM207.942 234.61c0-1.01-0.088-1.684-0.263-2.02-0.176-0.337-0.586-0.505-1.23-0.506-0.644 0-1.376 0.256-2.196 0.769v0 1.603l0.241 5.161-2.965 0.549 0.264-5.336-0.264-11.113 3.009-0.549-0.285 5.688v2.57c0.22-0.293 0.469-0.578 0.746-0.857 0.278-0.278 0.71-0.593 1.296-0.944 0.586-0.351 1.212-0.527 1.88-0.527 0.665 0 1.224 0.259 1.678 0.777 0.454 0.521 0.681 1.228 0.681 2.122v0l-0.132 2.459 0.241 5.271-2.964 0.549zM215.255 240.166c-0.864 0-1.571-0.275-2.121-0.826-0.548-0.548-0.821-1.287-0.821-2.218 0-0.928 0.425-1.733 1.273-2.415 0.849-0.679 1.881-1.019 3.097-1.019v0h1.493v-0.374c0-0.717-0.146-1.208-0.439-1.471-0.293-0.264-0.842-0.395-1.647-0.395v0c-0.337 0-0.736 0.069-1.199 0.206-0.46 0.141-0.975 0.357-1.546 0.65v0l-0.637-1.735c0.63-0.439 1.394-0.835 2.293-1.186 0.902-0.351 1.646-0.527 2.231-0.527v0c2.299 0 3.448 1.113 3.448 3.338v0 4.305c0 0.82 0.256 1.735 0.768 2.745v0l-2.327 0.988c-0.366-0.703-0.637-1.332-0.813-1.889v0c-0.805 1.215-1.823 1.823-3.053 1.823zM216.178 237.926v0c0.586 0 1.252-0.3 1.998-0.9v0-1.472c-0.776-0.176-1.406-0.264-1.888-0.263v0c-0.922 0-1.384 0.41-1.384 1.23v0c0 0.425 0.117 0.764 0.351 1.019 0.234 0.258 0.542 0.387 0.923 0.386zM226.082 235.576c0-1.874 0.505-3.463 1.516-4.765 1.01-1.303 2.193-1.955 3.549-1.955 1.353 0 2.407 0.439 3.162 1.318 0.753 0.878 1.129 2.042 1.129 3.492v0c0 1.933-0.486 3.539-1.458 4.818-0.975 1.283-2.202 1.924-3.681 1.924v0c-1.215 0-2.221-0.458-3.018-1.375-0.799-0.914-1.199-2.066-1.199-3.457zM232.978 234.808v0c0-2.123-0.725-3.184-2.174-3.185v0c-1.508 0-2.262 0.996-2.262 2.987v0c0 1.04 0.212 1.852 0.637 2.438 0.425 0.586 0.985 0.878 1.682 0.878 0.694 0 1.221-0.268 1.581-0.804 0.357-0.533 0.536-1.304 0.536-2.314zM243.695 234.61c0-1.01-0.088-1.684-0.263-2.02-0.176-0.337-0.586-0.505-1.23-0.506-0.644 0-1.376 0.256-2.196 0.769v0 1.603l0.241 5.161-2.943 0.549 0.264-5.336c-0.059-1.962-0.22-3.719-0.483-5.271v0l2.657-0.571c0.102 0.849 0.176 1.676 0.22 2.482v0c0.22-0.293 0.469-0.583 0.746-0.87 0.278-0.284 0.717-0.606 1.318-0.966 0.6-0.357 1.234-0.536 1.902-0.536 0.665 0 1.224 0.259 1.678 0.777 0.454 0.521 0.681 1.228 0.681 2.122v0l-0.132 2.459 0.241 5.271-2.964 0.549zM248.812 223.717l3.009-0.549-0.286 11.288 0.242 5.161-2.965 0.549 0.264-5.336zM254.368 229.537l2.943-0.549-0.263 5.468 0.241 5.161-2.943 0.549 0.264-5.336zM254.215 225.773c0-0.492 0.19-0.931 0.571-1.318 0.381-0.389 0.82-0.584 1.317-0.584 0.498 0 0.878 0.135 1.142 0.404 0.264 0.272 0.395 0.679 0.396 1.221 0 0.542-0.187 1.006-0.563 1.392-0.372 0.389-0.802 0.584-1.291 0.585-0.492 0-0.877-0.161-1.155-0.484-0.278-0.322-0.417-0.728-0.417-1.216zM266.096 234.61c0-1.01-0.088-1.684-0.264-2.02-0.176-0.337-0.586-0.505-1.23-0.506-0.644 0-1.376 0.256-2.196 0.769v0 1.603l0.242 5.161-2.943 0.549 0.264-5.336c-0.059-1.962-0.22-3.719-0.484-5.271v0l2.658-0.571c0.102 0.849 0.176 1.676 0.219 2.482v0c0.22-0.293 0.469-0.583 0.747-0.87 0.278-0.284 0.717-0.606 1.318-0.966 0.6-0.357 1.233-0.536 1.897-0.536 0.668 0 1.228 0.259 1.682 0.777 0.454 0.521 0.681 1.228 0.681 2.122v0l-0.132 2.459 0.242 5.271-2.965 0.549zM275.166 237.926v0c0.425 0 0.871-0.11 1.339-0.329 0.469-0.22 0.835-0.439 1.099-0.659v0l0.395-0.33 1.01 1.23c-0.146 0.249-0.373 0.534-0.681 0.857-0.307 0.322-0.618 0.596-0.931 0.821-0.316 0.228-0.734 0.433-1.252 0.615-0.521 0.184-1.06 0.277-1.616 0.277v0c-1.186 0-2.152-0.451-2.899-1.353-0.747-0.899-1.12-2.059-1.12-3.479v0c0-1.786 0.52-3.353 1.559-4.699 1.04-1.347 2.255-2.02 3.646-2.021v0c1.069 0 1.899 0.3 2.49 0.901 0.594 0.6 0.892 1.442 0.892 2.525v0c0 0.644-0.11 1.376-0.33 2.196v0l-0.439 0.461-5.49 0.506c0.249 1.654 1.025 2.482 2.328 2.481zM275.166 231.118v0c-0.644 0-1.186 0.261-1.625 0.782-0.439 0.518-0.695 1.18-0.769 1.985v0l3.733-0.461c0.044-0.337 0.066-0.615 0.066-0.834v0c0-0.981-0.469-1.471-1.405-1.472zM286.586 240.166c-0.864 0-1.571-0.275-2.122-0.826-0.548-0.548-0.821-1.287-0.821-2.218 0-0.928 0.425-1.733 1.274-2.415 0.849-0.679 1.881-1.019 3.096-1.019v0h1.494v-0.374c0-0.717-0.146-1.208-0.44-1.471-0.293-0.264-0.842-0.395-1.647-0.395v0c-0.337 0-0.736 0.069-1.199 0.206-0.46 0.141-0.975 0.357-1.546 0.65v0l-0.637-1.735c0.63-0.439 1.394-0.835 2.293-1.186 0.902-0.351 1.646-0.527 2.231-0.527v0c2.299 0 3.448 1.113 3.448 3.338v0 4.305c0 0.82 0.256 1.735 0.769 2.745v0l-2.328 0.988c-0.366-0.703-0.637-1.332-0.813-1.889v0c-0.805 1.215-1.823 1.823-3.052 1.823zM287.508 237.926v0c0.586 0 1.252-0.3 1.999-0.9v0-1.472c-0.776-0.176-1.406-0.264-1.889-0.263v0c-0.922 0-1.384 0.41-1.384 1.23v0c0 0.425 0.117 0.764 0.352 1.019 0.234 0.258 0.542 0.387 0.922 0.386zM297.325 240.166v0c-0.791 0-1.432-0.261-1.924-0.782-0.489-0.518-0.734-1.202-0.734-2.051v0l0.132-2.525-0.241-5.271 2.942-0.549-0.285 6.676c0 0.63 0.114 1.091 0.343 1.384 0.225 0.293 0.587 0.439 1.084 0.439 0.498 0 1.186-0.249 2.065-0.747v0-1.317l-0.242-5.776 2.965-0.549-0.264 5.49 0.022 1.801c0 0.937 0.242 1.881 0.725 2.833v0l-2.284 1.01c-0.483-0.952-0.776-1.713-0.878-2.284v0c-1.318 1.479-2.46 2.218-3.426 2.218zM309.667 231.711c-0.644 0-1.142 0.23-1.493 0.69-0.351 0.463-0.527 1.17-0.527 2.121 0 0.952 0.179 1.716 0.535 2.293 0.36 0.58 0.884 0.87 1.573 0.87v0c0.351 0 0.695-0.11 1.032-0.33 0.337-0.22 0.593-0.439 0.769-0.659v0l0.241-0.351 1.098 1.142c-0.044 0.073-0.098 0.176-0.162 0.307-0.067 0.132-0.23 0.366-0.488 0.703-0.255 0.337-0.526 0.632-0.812 0.887-0.284 0.258-0.653 0.492-1.107 0.703-0.454 0.214-0.93 0.321-1.428 0.321v0c-1.098 0-1.991-0.447-2.679-1.34-0.688-0.893-1.032-2.057-1.032-3.492v0c0-1.786 0.52-3.353 1.559-4.699 1.04-1.347 2.255-2.02 3.646-2.021v0c0.425 0 0.849 0.061 1.274 0.185 0.425 0.126 0.856 0.321 1.295 0.584v0l-1.537 2.701c-0.527-0.41-1.113-0.615-1.757-0.615zM313.928 229.537h1.273v-2.394l2.965-0.571-0.285 2.965h2.657l-0.242 1.801h-2.503l-0.11 4.59c0 0.688 0.066 1.145 0.198 1.37 0.132 0.228 0.373 0.343 0.724 0.343 0.351 0 0.82-0.081 1.406-0.242v0l0.132 1.559c-0.966 0.805-1.815 1.208-2.548 1.208-0.732 0-1.332-0.268-1.801-0.804-0.469-0.533-0.703-1.231-0.703-2.095v0l0.132-2.459-0.022-3.47h-1.515zM322.141 229.537l2.943-0.549-0.264 5.468 0.242 5.161-2.943 0.549 0.264-5.336zM321.987 225.773c0-0.492 0.19-0.931 0.571-1.318 0.381-0.389 0.82-0.584 1.318-0.584 0.498 0 0.878 0.135 1.142 0.404 0.264 0.272 0.395 0.679 0.395 1.221 0 0.542-0.187 1.006-0.562 1.392-0.372 0.389-0.804 0.584-1.296 0.585-0.489 0-0.873-0.161-1.15-0.484-0.278-0.322-0.417-0.728-0.418-1.216zM326.841 235.576c0-1.874 0.505-3.463 1.515-4.765 1.01-1.303 2.192-1.955 3.545-1.955 1.356 0 2.41 0.439 3.162 1.318 0.755 0.878 1.133 2.042 1.133 3.492v0c0 1.933-0.488 3.539-1.462 4.818-0.972 1.283-2.198 1.924-3.677 1.924v0c-1.215 0-2.222-0.458-3.022-1.375-0.796-0.914-1.195-2.066-1.194-3.457zM333.737 234.808v0c0-2.123-0.725-3.184-2.175-3.185v0c-1.508 0-2.262 0.996-2.262 2.987v0c0 1.04 0.212 1.852 0.637 2.438 0.425 0.586 0.984 0.878 1.678 0.878 0.697 0 1.224-0.268 1.581-0.804 0.36-0.533 0.54-1.304 0.541-2.314zM344.454 234.61c0-1.01-0.088-1.684-0.264-2.02-0.176-0.337-0.586-0.505-1.23-0.506-0.644 0-1.376 0.256-2.196 0.769v0 1.603l0.242 5.161-2.943 0.549 0.264-5.336c-0.059-1.962-0.22-3.719-0.484-5.271v0l2.658-0.571c0.102 0.849 0.176 1.676 0.219 2.482v0c0.22-0.293 0.469-0.583 0.747-0.87 0.278-0.284 0.717-0.606 1.318-0.966 0.6-0.357 1.234-0.536 1.902-0.536 0.665 0 1.224 0.259 1.677 0.777 0.454 0.521 0.681 1.228 0.681 2.122v0l-0.132 2.459 0.242 5.271-2.965 0.549z" fill="#130912" fill-rule="nonzero" stroke="none" stroke-width="1" stroke-linecap="butt" stroke-linejoin="miter" stroke-miterlimit="10" stroke-dasharray="" stroke-dashoffset="0" font-family="none" font-weight="none" font-size="none" text-anchor="none" style="mix-blend-mode: normal" data-fill-palette-color="secondary" id="text-1"></path></g></g><g transform="matrix(1,0,0,1,29.33176499999999,76.65173476635516)"><svg viewBox="0 0 316.416 77.87185046728972" height="77.87185046728972" width="316.416"><g><svg viewBox="0 0 316.416 77.87185046728972" height="77.87185046728972" width="316.416"><g><svg viewBox="0 0 316.416 77.87185046728972" height="77.87185046728972" width="316.416"><g><svg viewBox="0 0 316.416 77.87185046728972" height="77.87185046728972" width="316.416"><g id="textblocktransform"><svg viewBox="0 0 316.416 77.87185046728972" height="77.87185046728972" width="316.416" id="textblock"><g><svg viewBox="0 0 316.416 77.87185046728972" height="77.87185046728972" width="316.416"><g transform="matrix(1,0,0,1,0,0)"><svg width="316.416" viewBox="3.9 -35 144.44 35.55" height="77.87185046728972" data-palette-color="#130912"><path d="M22.55-9.2Q22.55-5 20.25-2.25 17.95 0.5 13.3 0.5L13.3 0.5Q8.65 0.5 6.28-2.27 3.9-5.05 3.9-9.2L3.9-9.2 3.9-15.8Q3.9-20.55 6.33-23.08 8.75-25.6 13.3-25.6L13.3-25.6Q17.65-25.6 20.1-22.98 22.55-20.35 22.55-15.8L22.55-15.8 22.55-9.2ZM19.75-15.8Q19.75-19.55 18.03-21.3 16.3-23.05 13.3-23.05L13.3-23.05Q10.2-23.05 8.45-21.3 6.7-19.55 6.7-15.8L6.7-15.8 6.7-8.7Q6.7-5.7 8.47-3.85 10.25-2 13.3-2L13.3-2Q16.4-2 18.07-3.83 19.75-5.65 19.75-8.7L19.75-8.7 19.75-15.8ZM56.55 0L56.55-17.15Q56.55-20.15 54.97-21.55 53.4-22.95 50.9-22.95L50.9-22.95Q48.95-22.95 46.55-22.1L46.55-22.1 44.7-21.2Q45.55-19.5 45.55-17.3L45.55-17.3 45.55 0 42.8 0 42.8-17.15Q42.8-20.2 41.22-21.58 39.65-22.95 37.1-22.95L37.1-22.95Q35.55-22.95 33.9-22.48 32.25-22 30.9-21.25L30.9-21.25 30.9 0 28.1 0 28.1-25.05 30.9-25.05 30.65-23.45Q33.95-25.4 37.4-25.4L37.4-25.4Q39.2-25.4 40.77-24.8 42.35-24.2 43.45-23.05L43.45-23.05Q44.15-23.45 45.55-24.15L45.55-24.15Q48.5-25.5 51.25-25.5L51.25-25.5Q54.8-25.5 57.05-23.33 59.3-21.15 59.3-17.3L59.3-17.3 59.3 0 56.55 0ZM83.5-9.2Q83.5-5 81.2-2.25 78.9 0.5 74.25 0.5L74.25 0.5Q69.6 0.5 67.22-2.27 64.85-5.05 64.85-9.2L64.85-9.2 64.85-15.8Q64.85-20.55 67.27-23.08 69.7-25.6 74.25-25.6L74.25-25.6Q78.6-25.6 81.05-22.98 83.5-20.35 83.5-15.8L83.5-15.8 83.5-9.2ZM80.7-15.8Q80.7-19.55 78.97-21.3 77.25-23.05 74.25-23.05L74.25-23.05Q71.15-23.05 69.4-21.3 67.65-19.55 67.65-15.8L67.65-15.8 67.65-8.7Q67.65-5.7 69.42-3.85 71.2-2 74.25-2L74.25-2Q77.35-2 79.02-3.83 80.7-5.65 80.7-8.7L80.7-8.7 80.7-15.8ZM103.04-0.3Q99.94 0.5 97.04 0.5L97.04 0.5Q94.34 0.5 92.54-0.1L92.54-0.1Q89.59-1.1 88.27-3.18 86.94-5.25 86.94-9L86.94-9 86.94-15.4Q86.94-20.35 89.54-22.93 92.14-25.5 96.24-25.5L96.24-25.5Q99.49-25.5 102.94-23.9L102.94-23.9 102.14-21.85Q99.29-23 96.64-23L96.64-23Q93.54-23 91.64-21.23 89.74-19.45 89.74-15.7L89.74-15.7 89.74-8.45Q89.74-5 91.82-3.45 93.89-1.9 97.34-1.9L97.34-1.9Q99.59-1.9 102.44-2.55L102.44-2.55 103.04-0.3ZM121.49 0L121.49-17.15Q121.49-20.2 119.72-21.58 117.94-22.95 115.14-22.95L115.14-22.95Q113.44-22.95 111.69-22.48 109.94-22 108.59-21.25L108.59-21.25 108.59 0 105.79 0 105.79-35 108.59-35 108.59-23.7Q109.84-24.55 111.59-25.03 113.34-25.5 115.24-25.5L115.24-25.5Q117.84-25.5 119.99-24.55L119.99-24.55Q121.99-23.65 123.12-21.85 124.24-20.05 124.24-17.3L124.24-17.3 124.24 0 121.49 0ZM148.34 0Q142.94 0.55 140.54 0.55L140.54 0.55Q135.29 0.55 132.19-1.4 129.09-3.35 129.09-8.45L129.09-8.45 129.09-12.6Q129.09-17.55 132.54-19.25L132.54-19.25Q134.19-20.1 136.74-20.1L136.74-20.1Q139.09-20.1 141.49-19.33 143.89-18.55 145.54-17.3L145.54-17.3Q145.54-20.05 143.94-21.68 142.34-23.3 137.79-23.3L137.79-23.3 137.94-25.45Q142.74-25.45 145.01-23.93 147.29-22.4 147.81-20.3 148.34-18.2 148.34-14.9L148.34-14.9 148.34 0ZM145.54-15.15Q143.49-16.1 141.16-16.8 138.84-17.5 136.89-17.5L136.89-17.5Q131.84-17.5 131.84-12.45L131.84-12.45 131.84-8.1Q131.84-4.85 134.09-3.38 136.34-1.9 140.49-1.9L140.49-1.9Q142.64-1.9 145.54-2.3L145.54-2.3 145.54-15.15Z" opacity="1" transform="matrix(1,0,0,1,0,0)" fill="#130912" class="wordmark-text-0" data-fill-palette-color="primary" id="text-0"></path></svg></g></svg></g></svg></g></svg></g></svg></g></svg></g></svg></g></svg></g><defs></defs></svg><rect width="375.07953" height="231.17532000000003" fill="none" stroke="none" visibility="hidden"></rect></g></svg></g></svg>